<?xml version="1.0" standalone="no"?>
<!DOCTYPE svg PUBLIC "-//W3C//DTD SVG 20010904//EN"
 "http://www.w3.org/TR/2001/REC-SVG-20010904/DTD/svg10.dtd">
<svg version="1.0" xmlns="http://www.w3.org/2000/svg"
 width="700.000000pt" height="700.000000pt" viewBox="0 0 700.000000 700.000000"
 preserveAspectRatio="xMidYMid meet">
<metadata>
Created by potrace 1.11, written by Peter Selinger 2001-2013
</metadata>
<g transform="translate(0.000000,700.000000) scale(0.100000,-0.100000)"
fill="#000000" stroke="none">
<path d="M0 3500 l0 -3500 3500 0 3500 0 0 3500 0 3500 -3500 0 -3500 0 0
-3500z m4132 2928 c103 -48 190 -148 226 -259 16 -51 17 -218 13 -2904 -2
-1567 -5 -2852 -7 -2854 -8 -9 -206 23 -284 46 -202 58 -336 137 -485 287
-364 367 -587 1039 -809 2431 -19 121 -62 414 -96 650 -33 237 -63 440 -65
453 l-5 22 525 0 525 0 0 36 c0 20 -23 415 -50 877 -56 924 -56 910 0 1024 72
146 202 224 365 220 73 -2 101 -7 147 -29z"/>
<path d="M3951 6026 c-71 -40 -66 -142 9 -181 99 -51 190 86 111 166 -33 32
-78 38 -120 15z"/>
<path d="M3951 4896 c-57 -31 -67 -107 -22 -158 40 -45 98 -46 140 -3 45 46
45 102 2 146 -33 32 -78 38 -120 15z"/>
</g>
</svg>
