<?xml version="1.0" standalone="no"?>
<!DOCTYPE svg PUBLIC "-//W3C//DTD SVG 20010904//EN"
 "http://www.w3.org/TR/2001/REC-SVG-20010904/DTD/svg10.dtd">
<svg version="1.0" xmlns="http://www.w3.org/2000/svg"
 width="700.000000pt" height="700.000000pt" viewBox="0 0 700.000000 700.000000"
 preserveAspectRatio="xMidYMid meet">
<metadata>
Created by potrace 1.11, written by Peter Selinger 2001-2013
</metadata>
<g transform="translate(0.000000,700.000000) scale(0.100000,-0.100000)"
fill="#000000" stroke="none">
<path d="M0 3500 l0 -3500 3500 0 3500 0 0 3500 0 3500 -3500 0 -3500 0 0
-3500z m4133 2928 c71 -33 155 -111 191 -178 61 -113 58 79 50 -3017 l-7
-2823 -21 0 c-62 0 -231 34 -324 65 -493 164 -791 628 -1022 1591 -100 417
-196 961 -309 1757 l-67 477 523 0 523 0 0 41 c0 23 -23 419 -50 881 -46 776
-49 844 -36 907 19 89 46 142 110 209 85 90 164 122 291 119 73 -2 101 -7 148
-29z"/>
<path d="M3951 6026 c-30 -17 -50 -53 -51 -91 -1 -87 111 -131 174 -69 30 31
38 70 21 110 -24 58 -89 81 -144 50z"/>
<path d="M3951 4896 c-78 -43 -58 -172 29 -191 77 -17 146 67 116 139 -25 60
-89 83 -145 52z"/>
</g>
</svg>
