<?xml version="1.0" standalone="no"?>
<!DOCTYPE svg PUBLIC "-//W3C//DTD SVG 20010904//EN"
 "http://www.w3.org/TR/2001/REC-SVG-20010904/DTD/svg10.dtd">
<svg version="1.0" xmlns="http://www.w3.org/2000/svg"
 width="806.000000pt" height="806.000000pt" viewBox="0 0 806.000000 806.000000"
 preserveAspectRatio="xMidYMid meet">
<metadata>
Created by potrace 1.11, written by Peter Selinger 2001-2013
</metadata>
<g transform="translate(0.000000,806.000000) scale(0.100000,-0.100000)"
fill="#000000" stroke="none">
<path d="M7339 7175 c-2 -1 -30 -6 -61 -9 -59 -7 -197 -40 -233 -55 -11 -5
-42 -17 -70 -26 -100 -36 -328 -152 -505 -257 -54 -32 -340 -178 -340 -173 0
2 -21 -5 -46 -15 -25 -11 -55 -22 -67 -25 -12 -2 -41 -9 -65 -15 -78 -19 -117
-23 -207 -23 -124 1 -219 13 -259 35 -12 6 -23 11 -26 10 -12 -4 -80 24 -150
61 -207 110 -201 108 -224 76 -13 -19 -12 -25 7 -60 51 -90 115 -155 250 -252
141 -101 187 -139 183 -146 -3 -4 -57 -28 -121 -52 -63 -24 -115 -46 -115 -49
0 -3 26 -13 58 -24 60 -19 235 -101 262 -122 135 -108 182 -156 246 -254 38
-57 94 -167 94 -185 0 -21 17 -27 32 -12 7 7 49 41 93 77 44 35 82 68 85 72 3
4 26 -28 50 -70 64 -111 185 -229 281 -275 97 -46 158 -61 249 -61 65 -1 82 3
126 28 l51 29 -16 29 c-9 15 -19 28 -23 28 -5 0 -8 6 -8 14 0 15 -74 75 -227
183 -137 98 -193 156 -237 246 -38 77 -51 180 -33 257 3 14 8 35 11 47 2 12
10 31 16 42 6 12 7 21 3 21 -4 0 -3 4 2 8 6 4 22 29 35 56 33 64 136 174 218
233 72 51 197 116 247 128 6 2 39 10 73 19 120 32 256 25 403 -19 46 -14 93
-27 103 -30 11 -2 42 -12 70 -22 28 -9 53 -18 56 -18 3 -1 32 -9 65 -19 127
-38 195 -40 272 -6 46 20 56 29 80 79 38 76 40 191 4 266 -53 114 -183 184
-404 220 -73 12 -279 19 -288 10z"/>
<path d="M4887 6381 c-102 -34 -162 -61 -232 -104 -68 -42 -68 -42 -170 -144
-63 -63 -107 -119 -149 -188 -32 -54 -59 -104 -61 -109 -1 -6 -12 -32 -24 -59
-12 -26 -47 -120 -77 -210 -77 -227 -153 -446 -169 -487 -8 -19 -37 -97 -65
-173 -55 -149 -63 -170 -91 -234 -11 -24 -19 -47 -19 -53 0 -6 -4 -18 -10 -28
-5 -9 -44 -96 -86 -192 -78 -178 -185 -397 -250 -511 -20 -35 -45 -80 -56 -99
-44 -78 -93 -155 -100 -158 -5 -2 -8 -8 -8 -13 0 -10 -152 -237 -204 -304 -17
-22 -34 -44 -38 -50 -47 -63 -133 -172 -143 -180 -6 -5 -16 -17 -21 -26 -42
-75 -434 -479 -586 -604 -13 -11 -48 -41 -78 -66 -55 -46 -218 -171 -260 -199
-12 -8 -32 -22 -44 -31 -47 -36 -126 -89 -131 -89 -3 0 -27 -15 -53 -32 -67
-46 -85 -57 -102 -65 -8 -3 -39 -21 -67 -40 -29 -18 -53 -30 -53 -27 0 3 -12
-3 -27 -14 -16 -10 -64 -36 -108 -58 -44 -21 -81 -42 -83 -46 -2 -5 -10 -8
-17 -8 -7 0 -30 -9 -52 -20 -37 -19 -108 -51 -188 -85 -154 -65 -502 -180
-630 -208 -5 -2 -14 -5 -20 -8 -5 -4 -35 -12 -65 -19 -30 -7 -71 -20 -90 -28
-19 -8 -35 -13 -35 -12 0 6 -82 -22 -122 -42 -23 -11 -56 -34 -73 -51 -26 -26
-31 -37 -27 -66 4 -35 34 -101 59 -131 16 -18 94 -70 107 -70 4 0 28 -9 52
-19 39 -17 201 -62 269 -74 71 -13 107 -20 125 -24 11 -2 38 -6 60 -9 22 -2
55 -7 73 -9 183 -27 675 -27 832 -1 14 2 52 7 85 10 60 6 89 10 155 22 19 4
49 8 66 9 17 2 40 5 50 9 10 3 34 8 52 11 17 3 47 7 65 10 17 3 39 8 47 10 14
4 61 13 105 21 24 4 37 6 147 33 48 11 98 23 110 25 13 3 50 13 83 22 33 9 68
18 78 20 40 9 55 13 122 34 39 12 102 30 140 41 39 11 79 24 90 29 11 4 83 29
160 55 77 26 154 53 170 60 17 7 57 23 90 35 33 13 78 31 100 40 22 10 85 37
140 60 55 23 130 57 168 76 37 18 67 30 67 27 0 -3 6 -1 13 5 6 5 75 42 152
82 188 96 219 114 223 123 2 4 8 5 13 1 5 -3 9 -1 9 3 0 5 20 17 45 27 25 11
45 23 45 28 0 4 7 8 15 8 8 0 15 5 15 10 0 6 5 10 10 10 9 0 65 32 136 78 10
6 26 15 34 19 8 4 17 9 20 12 8 9 100 71 106 71 3 0 10 5 17 10 7 6 68 50 137
98 127 88 377 275 395 296 6 6 35 31 65 56 30 24 57 48 58 52 2 5 8 8 12 8 5
0 22 12 38 27 15 16 59 55 97 88 157 136 469 458 580 598 17 21 35 44 40 50
61 70 219 301 300 440 104 179 248 506 280 637 3 8 11 40 20 70 8 30 17 66 20
80 3 14 7 36 10 50 3 14 8 41 11 60 2 19 7 46 10 60 12 58 17 265 10 360 -2
25 -4 54 -5 65 -1 18 -9 20 -91 22 -99 1 -166 14 -250 45 -71 27 -170 79 -170
90 0 4 -5 8 -11 8 -15 0 -82 55 -144 116 -51 52 -44 54 -126 -26 -26 -25 -81
-77 -122 -117 l-75 -72 -21 77 c-11 42 -27 102 -35 132 -52 202 -113 335 -180
395 -86 78 -152 110 -336 161 -30 9 -64 17 -75 19 -25 4 -122 23 -155 31 -14
3 -32 6 -40 8 -73 11 -118 18 -135 20 -11 2 -20 8 -20 13 0 6 65 62 145 124
177 139 180 141 185 167 3 18 -4 23 -50 36 -73 22 -106 20 -208 -13z"/>
</g>
</svg>
